<svg width="42" height="48" fill="none" xmlns="http://www.w3.org/2000/svg"><rect x="4" y="3" width="34" height="41" rx="6" fill="#1A68AA"/><path d="M39.996 39.233v-7.401c0-1.59-1.327-2.88-2.964-2.88h-.774V1.93a.715.715 0 0 0-.333-.6L34.044.12c-.493-.315-1.15.028-1.15.601v8.68l-.56-1.47c-.754-1.976-2.694-3.288-4.863-3.288H14.518c-2.182 0-4.13 1.327-4.875 3.32L9.105 9.4V.721c0-.573-.656-.916-1.15-.6l-1.88 1.208a.715.715 0 0 0-.333.6v27.023h-.775c-1.636 0-2.963 1.29-2.963 2.88v7.401H.74a.73.73 0 0 0-.741.72v3.98c0 .398.332.72.74.72h3.197v1.908c0 .795.664 1.44 1.482 1.44h3.927c.819 0 1.482-.645 1.482-1.44v-1.908h20.344v1.908c0 .795.663 1.44 1.482 1.44h3.927c.818 0 1.481-.645 1.481-1.44v-1.908h3.197a.73.73 0 0 0 .741-.72v-3.98a.73.73 0 0 0-.741-.72h-1.263zM10.087 13.41h21.826v7.093H10.087V13.41zM9.58 37.22H7.048c-.773 0-1.4-.61-1.4-1.361v-.034c0-.752.627-1.361 1.4-1.361H9.58c.774 0 1.4.61 1.4 1.36v.035c.001.751-.626 1.36-1.4 1.36zm16.457.4H15.963c-.819 0-1.482-.644-1.482-1.439v-9.123c0-.795.663-1.44 1.482-1.44h10.074c.818 0 1.482.645 1.482 1.44v9.123c0 .795-.664 1.44-1.482 1.44zm8.915-.4H32.42c-.773 0-1.4-.61-1.4-1.361v-.034c0-.752.627-1.361 1.4-1.361h2.532c.773 0 1.4.61 1.4 1.36v.035c0 .751-.627 1.36-1.4 1.36zm-9.14-6.332h-9.648a.723.723 0 0 1-.733-.713v-.014c0-.394.328-.713.733-.713h9.648c.405 0 .733.319.733.713v.014a.723.723 0 0 1-.733.713zm0-2.88h-9.648a.723.723 0 0 1-.733-.713v-.014c0-.394.328-.713.733-.713h9.648c.405 0 .733.32.733.713v.014a.723.723 0 0 1-.733.713zm0 8.64h-9.648a.723.723 0 0 1-.733-.714v-.014c0-.394.328-.713.733-.713h9.648c.405 0 .733.32.733.713v.014a.723.723 0 0 1-.733.713zm0-2.88h-9.648a.723.723 0 0 1-.733-.713v-.015c0-.393.328-.712.733-.712h9.648c.405 0 .733.319.733.712v.015a.723.723 0 0 1-.733.712z" fill="url(#a)"/><defs><linearGradient id="a" x1="21" y1="-17.5" x2="21" y2="48" gradientUnits="userSpaceOnUse"><stop stop-color="#EFF1FF"/><stop offset="1" stop-color="#fff"/></linearGradient></defs></svg>